<svg viewBox="0 0 32 32" fill="none" xmlns="http://www.w3.org/2000/svg"><g filter="url(#_1524266407__a)"><rect x="3" y="3" width="26" height="26" rx="13" fill="url(#_1524266407__b)"></rect></g><path d="M7.797 14.493c-.824-.255-1.304-.666-1.469-1.517a.183.183 0 0 0-.18-.186c-.099 0-.18.084-.18.186-.246.851-.644 1.347-1.468 1.517-.1 0-.18.083-.18.186 0 .102.08.185.18.185.824.256 1.304.666 1.469 1.517 0 .103.08.186.18.186.099 0 .18-.083.18-.186.246-.85.644-1.346 1.468-1.517.1 0 .18-.083.18-.185a.183.183 0 0 0-.18-.186ZM9.266 7.296c.234 1.138.996 2.121 2.717 2.591.115 0 .208.088.208.195 0 .108-.093.196-.208.196-1.652.473-2.204 1.19-2.716 2.584a.203.203 0 0 1-.199.152.202.202 0 0 1-.2-.162c-.37-1.27-.974-2.101-2.714-2.574-.115 0-.209-.088-.209-.196 0-.107.094-.195.209-.195 1.721-.47 2.495-1.377 2.717-2.589a.203.203 0 0 1 .197-.147c.096 0 .174.063.198.145Z" fill="#fff"></path><path d="M17.454 7.547c2.65 0 4.23 1.334 4.23 3.15 0 1.872-1.353 3.197-2.507 3.197-.287 0-.431-.141-.431-.374 0-.518.835-1.297.835-2.766 0-1.24-.757-2.018-1.995-2.018-2.651 0-5.67 3.132-5.67 8.549 0 3.197 1.589 5.512 4.153 5.512 2.218 0 4.134-1.592 5.243-3.841.098-.198.193-.29.3-.29.155 0 .304.134.304.425 0 1.314-2.353 5.36-6.42 5.36-3.832 0-6.316-2.873-6.317-7.223 0-.487.031-.963.087-1.425.409-2.324 1.208-3.43 1.65-3.904.24-.247.568-.46 1.249-.605a1.225 1.225 0 0 0 .662-2.099c1.344-1.051 2.949-1.648 4.627-1.648Zm-5.405 2.337a.21.21 0 0 1-.065.41c-.143.03-.279.064-.408.101.152-.177.31-.348.473-.51Z" fill="#fff"></path><defs><linearGradient id="_1524266407__b" x1="11.032" y1="6.168" x2="13.577" y2="28.722" gradientUnits="userSpaceOnUse"><stop offset=".029" stop-color="#00C4CC"></stop><stop offset=".519" stop-color="#5A32FA"></stop><stop offset="1" stop-color="#7D2AE8"></stop></linearGradient><filter id="_1524266407__a" x="3" y="3" width="26" height="26" filterUnits="userSpaceOnUse" color-interpolation-filters="sRGB"><feFlood flood-opacity="0" result="BackgroundImageFix"></feFlood><feBlend in="SourceGraphic" in2="BackgroundImageFix" result="shape"></feBlend><feColorMatrix in="SourceAlpha" values="0 0 0 0 0 0 0 0 0 0 0 0 0 0 0 0 0 0 127 0" result="hardAlpha"></feColorMatrix><feMorphology radius="2.322" in="SourceAlpha" result="effect1_innerShadow_27083_547"></feMorphology><feOffset></feOffset><feGaussianBlur stdDeviation="3.929"></feGaussianBlur><feComposite in2="hardAlpha" operator="arithmetic" k2="-1" k3="1"></feComposite><feColorMatrix values="0 0 0 0 0 0 0 0 0 0.950481 0 0 0 0 0.989277 0 0 0 1 0"></feColorMatrix><feBlend in2="shape" result="effect1_innerShadow_27083_547"></feBlend><feColorMatrix in="SourceAlpha" values="0 0 0 0 0 0 0 0 0 0 0 0 0 0 0 0 0 0 127 0" result="hardAlpha"></feColorMatrix><feMorphology radius=".88" in="SourceAlpha" result="effect2_innerShadow_27083_547"></feMorphology><feOffset></feOffset><feGaussianBlur stdDeviation="1.1"></feGaussianBlur><feComposite in2="hardAlpha" operator="arithmetic" k2="-1" k3="1"></feComposite><feColorMatrix values="0 0 0 0 0.996434 0 0 0 0 0.904917 0 0 0 0 1 0 0 0 1 0"></feColorMatrix><feBlend in2="effect1_innerShadow_27083_547" result="effect2_innerShadow_27083_547"></feBlend></filter></defs></svg>